<!-- one.svg — Retro-Space Glove: thumbs up -->
<svg xmlns="http://www.w3.org/2000/svg" viewBox="0 0 256 256">
  <g stroke="#121417" stroke-width="8" stroke-linecap="round" stroke-linejoin="round">
    <!-- cuff -->
    <path fill="#FFB703" d="M34 168c10-36 40-64 78-68l36-4c30-4 58 12 70 40l6 14c6 14-2 30-18 34l-20 6c-32 10-64 12-96 2l-28-8c-20-6-32-26-28-46z"/>
    <path fill="#E09A00" d="M44 176c8-26 30-48 58-54l44-10c22-6 44 2 56 18l10 12c-10 10-24 18-40 22l-44 12c-30 8-60 6-84 0z"/>

    <!-- glove palm -->
    <path fill="#E9EDF2" d="M68 168c-8-22 4-48 28-58l42-18c26-10 56 0 70 24l16 28c10 18 2 40-18 48l-40 16c-28 12-62 2-78-22l-20-18z"/>
    <path fill="#C9D0DA" d="M90 182c-10-14-10-32 2-46 8-10 20-18 34-20l44-6c18-2 34 8 40 24l6 16c-8 10-18 18-30 22l-34 12c-24 8-48 8-62-2z"/>

    <!-- thumb up -->
    <path fill="#E9EDF2" d="M164 60c10-18 32-26 50-16 18 10 24 34 10 52l-26 34c-10 12-28 14-40 4-10-8-14-22-8-34l14-40z"/>
    <path fill="#C9D0DA" d="M182 72c8-10 22-14 34-6 10 8 12 22 4 34l-22 30c-8 10-22 10-32 2 4-8 6-16 4-24l8-36z"/>

    <!-- mission patch -->
    <path fill="#3A86FF" d="M74 146c0-14 10-26 24-28l20-4c14-2 28 6 32 20l2 6c4 14-4 30-18 34l-18 6c-18 6-38-4-42-22z"/>
    <path fill="none" d="M92 146l10 10 18-22"/>
    <circle fill="#0B1B3A" stroke="none" cx="92" cy="126" r="3"/>
    <circle fill="#0B1B3A" stroke="none" cx="112" cy="122" r="3"/>

    <!-- stitch / crease lines -->
    <path fill="none" d="M112 160c18 10 42 10 62-2"/>
    <path fill="none" d="M120 132c10 6 22 6 36 0"/>
    <path fill="none" d="M152 188c10-2 20-6 28-12"/>
  </g>
</svg>