<!-- paper.svg — Retro-Space Glove: open palm -->
<svg xmlns="http://www.w3.org/2000/svg" viewBox="0 0 256 256">
  <g stroke="#121417" stroke-width="8" stroke-linecap="round" stroke-linejoin="round">
    <!-- cuff -->
    <path fill="#FFB703" d="M34 168c10-36 40-64 78-68l36-4c30-4 58 12 70 40l6 14c6 14-2 30-18 34l-20 6c-32 10-64 12-96 2l-28-8c-20-6-32-26-28-46z"/>
    <path fill="#E09A00" d="M44 176c8-26 30-48 58-54l44-10c22-6 44 2 56 18l10 12c-10 10-24 18-40 22l-44 12c-30 8-60 6-84 0z"/>

    <!-- palm -->
    <path fill="#E9EDF2" d="M78 192c-10-18-8-42 8-58 10-10 22-18 38-20l48-8c22-4 44 8 52 30l8 22c6 18-4 38-22 44l-52 16c-30 10-64 0-80-26z"/>
    <path fill="#C9D0DA" d="M98 202c-10-12-10-30 2-42 8-8 18-14 30-16l48-8c16-2 32 6 38 20l6 14c-10 12-22 20-36 24l-30 10c-22 8-44 8-58-2z"/>

    <!-- fingers together (four bands) -->
    <path fill="#E9EDF2" d="M112 32c14-6 30 2 34 18l8 64c2 18-10 34-28 34-14 0-26-12-26-28V72c0-18 4-32 12-40z"/>
    <path fill="#E9EDF2" d="M136 30c14-6 30 2 34 18l8 68c2 18-10 34-28 34-14 0-26-12-26-28V70c0-18 4-32 12-40z"/>
    <path fill="#E9EDF2" d="M160 32c14-6 30 2 34 18l8 64c2 18-10 34-28 34-14 0-26-12-26-28V72c0-18 4-32 12-40z"/>
    <path fill="#E9EDF2" d="M184 40c12-4 26 4 30 18l8 54c4 18-8 34-26 34-14 0-24-10-26-24l-4-46c-2-18 4-30 18-36z"/>

    <!-- thumb extended close to palm -->
    <path fill="#E9EDF2" d="M86 128c-16-10-22-28-14-44 10-18 32-22 48-10l26 18c14 10 16 30 4 42-10 10-26 12-40 4l-24-10z"/>
    <path fill="#C9D0DA" d="M92 124c-10-8-12-18-6-28 6-10 18-12 28-6l20 12c-6 10-16 18-28 22l-14 0z"/>

    <!-- mission patch -->
    <path fill="#3A86FF" d="M80 160c0-14 10-26 24-28l20-4c14-2 28 6 32 20l2 6c4 14-4 30-18 34l-18 6c-18 6-38-4-42-22z"/>
    <path fill="none" d="M98 160l10 10 18-22"/>

    <!-- finger seam hints -->
    <path fill="none" d="M124 108c6 6 14 8 22 6"/>
    <path fill="none" d="M150 106c6 6 14 8 22 6"/>
    <path fill="none" d="M176 110c6 6 12 6 18 2"/>
  </g>
</svg>