<?xml version="1.0" encoding="UTF-8" standalone="no"?>
<svg xmlns="http://www.w3.org/2000/svg"
     xmlns:svg="http://www.w3.org/2000/svg"
     version="1.1"
     width="24.68in" height="24.68in"
     viewBox="0 0 2468 2468">
  <path id="tri 60"
        fill="none" stroke="black" stroke-width="1"
        d="M 1230.99,20.42M 1234.47,2468.00
           C 1234.47,2468.00 2302.47,617.56 2302.47,617.56
             2302.47,617.56 166.22,617.81 166.22,617.81
             166.22,617.81 1234.47,2468.00 1234.47,2468.00 Z" />
  <path id="tri 30"
        fill="none" stroke="black" stroke-width="1"
        d="M 624.60,2283.49M 1851.41,165.56
           C 1851.41,165.56 1851.10,2302.09 1851.10,2302.09
             1851.10,2302.09 1.18,1233.74 1.18,1233.74
             1.18,1233.74 1851.41,165.56 1851.41,165.56 Z" />
  <path id="tri -30"
        fill="none" stroke="black" stroke-width="1"
        d="M 1838.19,2286.50M 617.41,165.09
           C 617.41,165.09 2467.55,1233.62 2467.55,1233.62
             2467.55,1233.62 617.37,2301.53 617.37,2301.53
             617.37,2301.53 617.41,165.09 617.41,165.09 Z" />
  <path id="tri 0"
        fill="none" stroke="black" stroke-width="1"
        d="M 1230.99,2447.58M 1234.47,0.00
           C 1234.47,0.00 2302.47,1850.44 2302.47,1850.44
             2302.47,1850.44 166.22,1850.19 166.22,1850.19
             166.22,1850.19 1234.47,0.00 1234.47,0.00 Z" />
</svg>
