<!-- rock.svg — Retro-Space Glove: closed fist -->
<svg xmlns="http://www.w3.org/2000/svg" viewBox="0 0 256 256">
  <g stroke="#121417" stroke-width="8" stroke-linecap="round" stroke-linejoin="round">
    <!-- cuff -->
    <path fill="#FFB703" d="M34 168c10-36 40-64 78-68l36-4c30-4 58 12 70 40l6 14c6 14-2 30-18 34l-20 6c-32 10-64 12-96 2l-28-8c-20-6-32-26-28-46z"/>
    <path fill="#E09A00" d="M44 176c8-26 30-48 58-54l44-10c22-6 44 2 56 18l10 12c-10 10-24 18-40 22l-44 12c-30 8-60 6-84 0z"/>

    <!-- fist block -->
    <path fill="#E9EDF2" d="M70 184c-10-20-2-46 18-60l22-14c24-16 58-12 76 10l24 30c14 18 8 44-12 54l-34 18c-30 16-70 6-86-22l-8-16z"/>
    <path fill="#C9D0DA" d="M92 200c-10-12-12-30-2-44 8-10 18-18 32-22l36-10c18-4 38 4 48 20l8 12c-10 12-22 20-36 24l-26 10c-22 8-44 10-60 10z"/>

    <!-- knuckle ridges -->
    <path fill="none" d="M108 150h98"/>
    <path fill="none" d="M102 172h106"/>
    <path fill="none" d="M112 194c24 10 56 8 80-4"/>

    <!-- tucked thumb hint -->
    <path fill="none" d="M112 142c10 12 22 20 36 22"/>

    <!-- mission patch -->
    <path fill="#3A86FF" d="M76 156c0-14 10-26 24-28l20-4c14-2 28 6 32 20l2 6c4 14-4 30-18 34l-18 6c-18 6-38-4-42-22z"/>
    <path fill="none" d="M94 156l10 10 18-22"/>
    <circle fill="#0B1B3A" stroke="none" cx="94" cy="136" r="3"/>
    <circle fill="#0B1B3A" stroke="none" cx="114" cy="132" r="3"/>
  </g>
</svg>