<!-- scissors.svg — Retro-Space Glove: index + middle -->
<svg xmlns="http://www.w3.org/2000/svg" viewBox="0 0 256 256">
  <g stroke="#121417" stroke-width="8" stroke-linecap="round" stroke-linejoin="round">
    <!-- cuff -->
    <path fill="#FFB703" d="M34 168c10-36 40-64 78-68l36-4c30-4 58 12 70 40l6 14c6 14-2 30-18 34l-20 6c-32 10-64 12-96 2l-28-8c-20-6-32-26-28-46z"/>
    <path fill="#E09A00" d="M44 176c8-26 30-48 58-54l44-10c22-6 44 2 56 18l10 12c-10 10-24 18-40 22l-44 12c-30 8-60 6-84 0z"/>

    <!-- palm -->
    <path fill="#E9EDF2" d="M72 180c-10-22 0-48 24-60l34-16c26-12 56-2 70 22l18 30c10 18 2 42-18 50l-36 14c-28 12-62 2-80-22l-12-18z"/>
    <path fill="#C9D0DA" d="M92 194c-12-14-12-34 0-48 8-10 18-16 32-18l40-6c18-2 34 8 40 24l6 16c-8 10-18 18-30 22l-30 10c-22 8-44 8-58 0z"/>

    <!-- index -->
    <path fill="#E9EDF2" d="M126 30c14-6 30 2 34 18l10 58c4 18-10 36-28 36-16 0-28-12-28-28V70c0-18 4-32 12-40z"/>
    <path fill="#C9D0DA" d="M140 42c10-2 20 6 22 16l8 46c2 12-6 24-18 26-6 0-10-2-14-6 4-8 6-16 6-26V60c0-8-2-14-4-18z"/>

    <!-- middle -->
    <path fill="#E9EDF2" d="M164 34c14-6 30 2 34 18l10 54c4 18-10 36-28 36-16 0-28-12-28-28V72c0-16 4-28 12-38z"/>
    <path fill="#C9D0DA" d="M178 46c10-2 20 6 22 16l8 42c2 12-6 24-18 26-6 0-10-2-14-6 4-8 6-16 6-24V66c0-8-2-14-4-20z"/>

    <!-- tucked thumb hint -->
    <path fill="none" d="M114 144c10 12 22 18 38 20"/>

    <!-- mission patch -->
    <path fill="#3A86FF" d="M76 154c0-14 10-26 24-28l20-4c14-2 28 6 32 20l2 6c4 14-4 30-18 34l-18 6c-18 6-38-4-42-22z"/>
    <path fill="none" d="M94 154l10 10 18-22"/>
  </g>
</svg>